<!-- <svg xmlns="http://www.w3.org/2000/svg" fill="none" width="128px" height="128px" viewBox="0 0 390.704 390.704">
	<path d="M20 4v16a2 2 0 0 1-2 2H6a2 2 0 0 1-2-2V4a2 2 0 0 1 2-2h12a2 2 0 0 1 2 2m0 1l-6 5m6-1l-7.5 6" />
	    <style>
        path { fill: #C02942; }
        @media (prefers-color-scheme: dark) {
            path { fill: #FFF; }
        }
    </style>
</svg> -->
<svg xmlns="http://www.w3.org/2000/svg" width="128" height="128" viewBox="0 0 24 24"><path fill="none" stroke=
"#88abc2" stroke-linecap="round" stroke-linejoin="round" stroke-width="1.5" d="M20 4v16a2 2 0 0 1-2 2H6a2 2 0 0 1-2-2V4a2 2 0 0 1 2-2h12a2 2 0 0 1 2 2m0 1l-6 5m6-1l-7.5 6"/>
    </svg>